<?xml version="1.0" encoding="iso-8859-1"?>
<!-- Generator: Adobe Illustrator 19.0.0, SVG Export Plug-In . SVG Version: 6.00 Build 0)  -->
<svg version="1.1" id="Layer_1" xmlns="http://www.w3.org/2000/svg" xmlns:xlink="http://www.w3.org/1999/xlink" x="0px" y="0px"
	 viewBox="0 0 511.994 511.994" style="enable-background:new 0 0 511.994 511.994;" xml:space="preserve">
<g>
	<rect x="124.038" y="224.07" style="fill:#1D1D1B;" width="160.05" height="15.666"/>
	<rect x="132.215" y="247.913" style="fill:#1D1D1B;" width="15.666" height="32.01"/>
	<rect x="164.225" y="247.913" style="fill:#1D1D1B;" width="15.666" height="96.03"/>
	<rect x="132.215" y="295.923" style="fill:#1D1D1B;" width="15.666" height="16.005"/>
	<rect x="196.235" y="247.913" style="fill:#1D1D1B;" width="15.666" height="32.01"/>
	<rect x="196.235" y="295.923" style="fill:#1D1D1B;" width="15.666" height="128.04"/>
	<rect x="164.225" y="359.954" style="fill:#1D1D1B;" width="15.666" height="32.01"/>
	<rect x="228.245" y="247.913" style="fill:#1D1D1B;" width="15.666" height="64.02"/>
	<rect x="228.245" y="327.933" style="fill:#1D1D1B;" width="15.666" height="48.017"/>
	<rect x="196.235" y="439.974" style="fill:#1D1D1B;" width="15.666" height="16.005"/>
	<rect x="228.245" y="391.964" style="fill:#1D1D1B;" width="15.666" height="40.01"/>
	<rect x="260.255" y="247.913" style="fill:#1D1D1B;" width="15.666" height="24.008"/>
	<path style="fill:#1D1D1B;" d="M204.065,151.711c35.395,0,64.191,28.795,64.191,64.191h15.666c0-41.39-31.654-75.52-72.024-79.468
		V79.688h112.206V64.022H196.232v72.412c-40.37,3.949-72.024,38.079-72.024,79.468h15.666
		C139.875,180.506,168.67,151.711,204.065,151.711z"/>
	<polygon style="fill:#1D1D1B;" points="260.253,0 260.253,55.85 275.919,55.85 275.919,15.666 372.29,15.666 372.29,128.043 
		275.919,128.043 275.919,87.86 260.253,87.86 260.253,143.709 387.956,143.709 387.956,0 	"/>
	<rect x="284.088" y="24.008" style="fill:#1D1D1B;" width="16.005" height="15.666"/>
	<rect x="348.108" y="24.008" style="fill:#1D1D1B;" width="16.005" height="15.666"/>
	<rect x="284.088" y="104.03" style="fill:#1D1D1B;" width="16.005" height="15.666"/>
	<rect x="348.108" y="104.03" style="fill:#1D1D1B;" width="16.005" height="15.666"/>
	<rect x="260.255" y="287.923" style="fill:#1D1D1B;" width="15.666" height="64.02"/>
	<rect x="196.235" y="471.984" style="fill:#1D1D1B;" width="15.666" height="40.01"/>
	<rect x="164.225" y="407.964" style="fill:#1D1D1B;" width="15.666" height="88.03"/>
	<rect x="132.215" y="327.933" style="fill:#1D1D1B;" width="15.666" height="56.019"/>
	<rect x="260.255" y="367.954" style="fill:#1D1D1B;" width="15.666" height="16.005"/>
</g>
<g>
</g>
<g>
</g>
<g>
</g>
<g>
</g>
<g>
</g>
<g>
</g>
<g>
</g>
<g>
</g>
<g>
</g>
<g>
</g>
<g>
</g>
<g>
</g>
<g>
</g>
<g>
</g>
<g>
</g>
</svg>
