<svg width="24" height="24" viewBox="0 0 24 24" fill="none" xmlns="http://www.w3.org/2000/svg">
<path d="M10 4L12 5L14 4" stroke="white" stroke-width="2" stroke-linecap="round" stroke-linejoin="round"/>
<path d="M12 2V8.5L15 10.22M17.928 6.268L18.062 8.5L19.928 9.732" stroke="white" stroke-width="2" stroke-linecap="round" stroke-linejoin="round"/>
<path d="M20.6598 7L15.0308 10.25L15.0408 13.708M19.9278 14.268L18.0618 15.5L17.9278 17.732" stroke="white" stroke-width="2" stroke-linecap="round" stroke-linejoin="round"/>
<path d="M20.66 17L15.031 13.75L12.041 15.488M14 20L12 19L10 20" stroke="white" stroke-width="2" stroke-linecap="round" stroke-linejoin="round"/>
<path d="M11.9998 22V15.5L8.99978 13.78M6.07178 17.732L5.93778 15.5L4.07178 14.268" stroke="white" stroke-width="2" stroke-linecap="round" stroke-linejoin="round"/>
<path d="M3.33984 17.0001L8.96884 13.7501L8.95884 10.2921M4.07184 9.73207L5.93784 8.50007L6.07184 6.26807" stroke="white" stroke-width="2" stroke-linecap="round" stroke-linejoin="round"/>
<path d="M3.33984 7L8.96884 10.25L11.9588 8.512" stroke="white" stroke-width="2" stroke-linecap="round" stroke-linejoin="round"/>
</svg>
