<svg width="14" height="18" viewBox="0 0 14 18" fill="none" xmlns="http://www.w3.org/2000/svg">
<path d="M7.00016 8.99996C7.4585 8.99996 7.851 8.83663 8.17766 8.50996C8.50377 8.18385 8.66683 7.79163 8.66683 7.33329C8.66683 6.87496 8.50377 6.48246 8.17766 6.15579C7.851 5.82968 7.4585 5.66663 7.00016 5.66663C6.54183 5.66663 6.14961 5.82968 5.8235 6.15579C5.49683 6.48246 5.3335 6.87496 5.3335 7.33329C5.3335 7.79163 5.49683 8.18385 5.8235 8.50996C6.14961 8.83663 6.54183 8.99996 7.00016 8.99996ZM7.00016 15.125C8.69461 13.5694 9.95155 12.1561 10.771 10.885C11.5904 9.6144 12.0002 8.48607 12.0002 7.49996C12.0002 5.98607 11.5174 4.74635 10.5518 3.78079C9.58683 2.81579 8.40294 2.33329 7.00016 2.33329C5.59738 2.33329 4.41322 2.81579 3.44766 3.78079C2.48266 4.74635 2.00016 5.98607 2.00016 7.49996C2.00016 8.48607 2.40988 9.6144 3.22933 10.885C4.04877 12.1561 5.30572 13.5694 7.00016 15.125ZM7.00016 17.0208C6.88905 17.0208 6.77794 17 6.66683 16.9583C6.55572 16.9166 6.4585 16.8611 6.37516 16.7916C4.34738 15 2.8335 13.3369 1.8335 11.8025C0.833496 10.2675 0.333496 8.83329 0.333496 7.49996C0.333496 5.41663 1.00377 3.7569 2.34433 2.52079C3.68433 1.28468 5.23627 0.666626 7.00016 0.666626C8.76405 0.666626 10.316 1.28468 11.656 2.52079C12.9966 3.7569 13.6668 5.41663 13.6668 7.49996C13.6668 8.83329 13.1668 10.2675 12.1668 11.8025C11.1668 13.3369 9.65294 15 7.62516 16.7916C7.54183 16.8611 7.44461 16.9166 7.3335 16.9583C7.22238 17 7.11127 17.0208 7.00016 17.0208Z" fill="white"/>
</svg>
