<svg width="24" height="24" viewBox="0 0 24 24" fill="none" xmlns="http://www.w3.org/2000/svg">
<path d="M9.75019 13.125C9.75019 13.3475 9.68421 13.565 9.56059 13.75C9.43697 13.935 9.26127 14.0792 9.05571 14.1644C8.85014 14.2495 8.62394 14.2718 8.40571 14.2284C8.18748 14.185 7.98703 14.0778 7.82969 13.9205C7.67236 13.7632 7.56521 13.5627 7.5218 13.3445C7.4784 13.1262 7.50067 12.9 7.58582 12.6945C7.67097 12.4889 7.81517 12.3132 8.00017 12.1896C8.18518 12.066 8.40268 12 8.62519 12C8.92356 12 9.2097 12.1185 9.42068 12.3295C9.63166 12.5405 9.75019 12.8266 9.75019 13.125ZM15.3752 12C15.1527 12 14.9352 12.066 14.7502 12.1896C14.5652 12.3132 14.421 12.4889 14.3358 12.6945C14.2507 12.9 14.2284 13.1262 14.2718 13.3445C14.3152 13.5627 14.4224 13.7632 14.5797 13.9205C14.737 14.0778 14.9375 14.185 15.1557 14.2284C15.3739 14.2718 15.6001 14.2495 15.8057 14.1644C16.0113 14.0792 16.187 13.935 16.3106 13.75C16.4342 13.565 16.5002 13.3475 16.5002 13.125C16.5002 12.8266 16.3817 12.5405 16.1707 12.3295C15.9597 12.1185 15.6736 12 15.3752 12ZM21.8158 13.5C21.6183 13.5883 21.404 13.633 21.1877 13.6312C20.8453 13.632 20.5135 13.5125 20.2502 13.2937V17.25C20.2502 18.2446 19.8551 19.1984 19.1518 19.9016C18.4486 20.6049 17.4947 21 16.5002 21H7.50019C6.50563 21 5.5518 20.6049 4.84854 19.9016C4.14528 19.1984 3.75019 18.2446 3.75019 17.25V13.2937C3.48682 13.5125 3.15506 13.632 2.81269 13.6312C2.59633 13.633 2.38211 13.5883 2.18456 13.5C1.87551 13.3635 1.6224 13.1255 1.46723 12.8253C1.31206 12.5252 1.26415 12.1811 1.33144 11.85L2.86894 3.64687C2.90759 3.44635 2.98654 3.25575 3.10099 3.08661C3.21545 2.91748 3.36304 2.77334 3.53482 2.6629C3.70661 2.55247 3.89902 2.47805 4.1004 2.44414C4.30179 2.41023 4.50796 2.41754 4.70644 2.46562L9.84394 3.75H14.1564L19.2939 2.46562C19.4924 2.41754 19.6986 2.41023 19.9 2.44414C20.1014 2.47805 20.2938 2.55247 20.4655 2.6629C20.6373 2.77334 20.7849 2.91748 20.8994 3.08661C21.0138 3.25575 21.0928 3.44635 21.1314 3.64687L22.6689 11.85C22.7362 12.1811 22.6883 12.5252 22.5331 12.8253C22.378 13.1255 22.1249 13.3635 21.8158 13.5ZM8.44706 4.95L4.34081 3.91875L2.80331 12.1312L8.44706 4.95ZM18.7502 17.25V11.4375L13.8846 5.25H10.1158L5.25019 11.4375V17.25C5.25266 17.846 5.4905 18.4168 5.91192 18.8383C6.33335 19.2597 6.90421 19.4975 7.50019 19.5H11.2502V18.3094L9.96581 17.0344C9.84622 16.8887 9.7851 16.7037 9.79434 16.5154C9.80359 16.3271 9.88254 16.149 10.0158 16.0157C10.1491 15.8824 10.3273 15.8034 10.5156 15.7942C10.7038 15.7849 10.8888 15.846 11.0346 15.9656L12.0002 16.9406L12.9658 15.9656C13.1115 15.846 13.2965 15.7849 13.4848 15.7942C13.6731 15.8034 13.8512 15.8824 13.9845 16.0157C14.1178 16.149 14.1968 16.3271 14.206 16.5154C14.2153 16.7037 14.1542 16.8887 14.0346 17.0344L12.7502 18.3094V19.5H16.5002C17.0962 19.4975 17.667 19.2597 18.0885 18.8383C18.5099 18.4168 18.7477 17.846 18.7502 17.25ZM21.1971 12.1312L19.6596 3.91875L15.5533 4.95L21.1971 12.1312Z" fill="#757575"/>
</svg>
