<svg width="24" height="24" viewBox="0 0 24 24" fill="none" xmlns="http://www.w3.org/2000/svg">
<path d="M9.75019 13.1249C9.75019 13.3474 9.68421 13.5649 9.56059 13.7499C9.43697 13.9349 9.26127 14.0791 9.05571 14.1643C8.85014 14.2494 8.62394 14.2717 8.40571 14.2283C8.18748 14.1849 7.98703 14.0777 7.82969 13.9204C7.67236 13.7631 7.56521 13.5626 7.5218 13.3444C7.4784 13.1262 7.50067 12.9 7.58582 12.6944C7.67097 12.4888 7.81517 12.3131 8.00017 12.1895C8.18518 12.0659 8.40268 11.9999 8.62519 11.9999C8.92356 11.9999 9.2097 12.1184 9.42068 12.3294C9.63166 12.5404 9.75019 12.8265 9.75019 13.1249ZM15.3752 11.9999C15.1527 11.9999 14.9352 12.0659 14.7502 12.1895C14.5652 12.3131 14.421 12.4888 14.3358 12.6944C14.2507 12.9 14.2284 13.1262 14.2718 13.3444C14.3152 13.5626 14.4224 13.7631 14.5797 13.9204C14.737 14.0777 14.9375 14.1849 15.1557 14.2283C15.3739 14.2717 15.6001 14.2494 15.8057 14.1643C16.0113 14.0791 16.187 13.9349 16.3106 13.7499C16.4342 13.5649 16.5002 13.3474 16.5002 13.1249C16.5002 12.8265 16.3817 12.5404 16.1707 12.3294C15.9597 12.1184 15.6736 11.9999 15.3752 11.9999ZM21.8158 13.4999C21.6183 13.5882 21.404 13.6329 21.1877 13.6312C20.8453 13.6319 20.5135 13.5124 20.2502 13.2937V17.2499C20.2502 18.2445 19.8551 19.1983 19.1518 19.9016C18.4486 20.6048 17.4947 20.9999 16.5002 20.9999H7.50019C6.50563 20.9999 5.5518 20.6048 4.84854 19.9016C4.14528 19.1983 3.75019 18.2445 3.75019 17.2499V13.2937C3.48683 13.5124 3.15506 13.6319 2.81269 13.6312C2.59633 13.6329 2.38211 13.5882 2.18456 13.4999C1.87551 13.3634 1.6224 13.1254 1.46723 12.8253C1.31206 12.5251 1.26415 12.181 1.33144 11.8499L2.86894 3.64679C2.90759 3.44626 2.98654 3.25566 3.10099 3.08653C3.21545 2.9174 3.36304 2.77325 3.53482 2.66282C3.70661 2.55238 3.89902 2.47796 4.1004 2.44405C4.30179 2.41014 4.50796 2.41745 4.70644 2.46554L9.84394 3.74991H14.1564L19.2939 2.46554C19.4924 2.41745 19.6986 2.41014 19.9 2.44405C20.1014 2.47796 20.2938 2.55238 20.4656 2.66282C20.6373 2.77325 20.7849 2.9174 20.8994 3.08653C21.0138 3.25566 21.0928 3.44626 21.1314 3.64679L22.6689 11.8499C22.7362 12.181 22.6883 12.5251 22.5331 12.8253C22.378 13.1254 22.1249 13.3634 21.8158 13.4999V13.4999ZM8.44706 4.94991L4.34081 3.91866L2.80331 12.1312L8.44706 4.94991ZM18.7502 17.2499V11.4374L13.8846 5.24991H10.1158L5.25019 11.4374V17.2499C5.25266 17.8459 5.4905 18.4168 5.91192 18.8382C6.33335 19.2596 6.90421 19.4974 7.50019 19.4999H11.2502V18.3093L9.96581 17.0343C9.84622 16.8886 9.7851 16.7036 9.79434 16.5153C9.80359 16.327 9.88254 16.1489 10.0158 16.0156C10.1491 15.8823 10.3273 15.8033 10.5156 15.7941C10.7038 15.7848 10.8888 15.8459 11.0346 15.9655L12.0002 16.9405L12.9658 15.9655C13.1115 15.8459 13.2965 15.7848 13.4848 15.7941C13.6731 15.8033 13.8512 15.8823 13.9845 16.0156C14.1178 16.1489 14.1968 16.327 14.206 16.5153C14.2153 16.7036 14.1542 16.8886 14.0346 17.0343L12.7502 18.3093V19.4999H16.5002C17.0962 19.4974 17.667 19.2596 18.0885 18.8382C18.5099 18.4168 18.7477 17.8459 18.7502 17.2499V17.2499ZM21.1971 12.1312L19.6596 3.91866L15.5533 4.94991L21.1971 12.1312Z" fill="white"/>
</svg>
